PathFileType  4	(X/Y/Z) C:\Users\antoi\Documents\MyRepositories\mobilecap\ResultsAnalysis
DataRate	CameraRate	NumFrames	NumMarkers	Units	OrigDataRate	OrigDataStartFrame	OrigNumFrames
100.0	100.0	4	51	mm	100.0	40	158
Frame#	Time	r_knee			r_shank_antsup			r_ankle			r_calc			r_5meta			r_toe			L_knee			L_shank_antsup			L_ankle			L_calc			L_5meta			L_toe			r_sh2			r_sh3			r_sh4			L_sh2			L_sh3			r_thigh1			r_thigh2			r_thigh3			r_thigh4			r_thigh5			L_thigh1			L_thigh2			L_thigh3			L_thigh4			r.ASIS			r.PSIS			L.ASIS			L.PSIS			C7			R_Shoulder			L_Shoulder			R_Sternum			L_Sternum			R_humerus			R_elbow_med			R_elbow_lat			R_forearm			R_wrist_radius			R_wrist_ulna			L_humerus			L_elbow_med			L_elbow_lat			L_forearm			L_wrist_radius			L_wrist_ulna			R_HJC			L_HJC			R_HJC_reg			L_HJC_reg			
		X1	Y1	Z1	X2	Y2	Z2	X3	Y3	Z3	X4	Y4	Z4	X5	Y5	Z5	X6	Y6	Z6	X7	Y7	Z7	X8	Y8	Z8	X9	Y9	Z9	X10	Y10	Z10	X11	Y11	Z11	X12	Y12	Z12	X13	Y13	Z13	X14	Y14	Z14	X15	Y15	Z15	X16	Y16	Z16	X17	Y17	Z17	X18	Y18	Z18	X19	Y19	Z19	X20	Y20	Z20	X21	Y21	Z21	X22	Y22	Z22	X23	Y23	Z23	X24	Y24	Z24	X25	Y25	Z25	X26	Y26	Z26	X27	Y27	Z27	X28	Y28	Z28	X29	Y29	Z29	X30	Y30	Z30	X31	Y31	Z31	X32	Y32	Z32	X33	Y33	Z33	X34	Y34	Z34	X35	Y35	Z35	X36	Y36	Z36	X37	Y37	Z37	X38	Y38	Z38	X39	Y39	Z39	X40	Y40	Z40	X41	Y41	Z41	X42	Y42	Z42	X43	Y43	Z43	X44	Y44	Z44	X45	Y45	Z45	X46	Y46	Z46	X47	Y47	Z47	X48	Y48	Z48	X49	Y49	Z49	X50	Y50	Z50	X51	Y51	Z51	

40	0.39000000	261.16295	600.67275	-67.17918	268.58236	447.35705	-82.82025	163.92433	95.81289	-119.56417	110.34096	76.92815	-185.87525	303.36022	36.29752	-96.73262	342.35718	65.34918	-144.47128	482.47221	649.46395	-366.95083	540.95349	456.19991	-346.34329	467.24636	151.17826	-335.40686	415.35406	122.98395	-264.24341	603.10764	67.72357	-379.99645	649.02866	105.38035	-330.22450	252.76940	336.77578	-98.86203	203.86609	449.10624	-42.71179	183.58162	337.55644	-51.07357	468.18445	462.58019	-395.16683	462.01038	346.65702	-376.39179	322.86833	887.30449	-18.67592	333.60694	774.90346	-29.44352	269.57767	749.33841	-21.47462	209.13569	882.32567	-37.12120	215.18314	768.59862	-38.33722	421.94650	941.70199	-371.06897	478.22316	819.83932	-369.54004	321.94010	902.14334	-384.02226	379.79786	777.50138	-386.97918	378.04606	1170.94335	-61.38860	181.85418	1202.49806	-131.71098	342.19569	1179.05242	-334.18393	169.41732	1203.27992	-224.04463	224.67906	1691.15779	-145.55827	306.04572	1629.60420	16.02342	273.79666	1681.76660	-330.08032	370.03381	1605.50052	-137.84300	369.71114	1612.94963	-194.50249	302.85189	1355.66757	73.98327	213.15649	1240.93241	40.80180	228.38975	1260.69458	111.99554	359.09495	1086.97057	119.68699	410.07211	1007.24853	110.61904	381.84562	997.10017	135.74054	252.51144	1393.88689	-414.47424	164.45206	1318.35694	-360.92311	177.81079	1319.40236	-438.34169	279.09294	1141.36576	-481.01559	317.60860	1071.59385	-478.82861	292.54053	1068.52811	-500.27348	297.12014	1075.74125	-95.58943	268.68526	1084.25428	-290.82263	304.23616	1090.96774	-91.94478	279.98644	1092.49205	-271.98366	
41	0.40000000	265.28223	600.04620	-67.56330	271.62098	446.79561	-83.37918	164.25525	96.04465	-120.12124	110.42514	76.94825	-186.39352	303.40365	36.46314	-96.88475	342.65227	65.16500	-144.90891	491.64393	647.29089	-365.47536	557.51237	456.80558	-345.06674	498.38860	148.43311	-335.46116	447.77537	117.78671	-264.50991	638.23848	70.97588	-379.40809	682.38713	110.91044	-329.58028	255.06023	336.23380	-99.57177	207.09324	448.76838	-42.95924	186.10878	337.38536	-51.42651	484.86197	460.02228	-394.29112	483.89863	343.68204	-375.80642	330.39505	886.07997	-18.91165	339.88473	773.71652	-29.90069	275.54659	748.73875	-21.53868	216.37079	882.21068	-36.45098	221.80256	767.95580	-38.22103	430.95954	939.43503	-370.15471	486.73822	817.47674	-367.95545	330.81299	900.38779	-383.48489	388.23786	775.45032	-385.86285	387.37077	1169.84484	-61.07208	191.28143	1201.37947	-131.93642	352.10450	1177.60279	-334.04155	179.04754	1202.03944	-224.25661	234.47189	1690.03944	-146.32548	315.45533	1628.68204	15.61305	284.34687	1680.30477	-330.65135	379.79261	1604.27238	-138.00671	379.57782	1611.59463	-194.65309	312.68821	1354.90491	74.06030	223.54467	1239.63491	40.94376	238.51747	1259.63718	112.21006	370.91218	1087.33759	120.09748	422.90601	1008.23427	111.11275	394.65669	997.78357	136.25396	263.56831	1392.33672	-414.79035	175.20837	1316.77820	-361.62626	188.86195	1317.85740	-438.99122	289.91275	1139.64852	-481.41238	328.24739	1069.81132	-479.07232	303.16080	1067.06249	-500.99554	306.45140	1074.62900	-95.36858	278.45092	1082.88971	-290.67504	313.58419	1089.83369	-91.68950	289.71253	1091.12107	-271.83889	
42	0.41000000	269.56591	599.37891	-67.92039	274.79245	446.20727	-83.93439	164.59914	96.30259	-120.65718	110.53402	76.98734	-186.87902	303.40443	36.62723	-97.05681	342.96056	64.96260	-145.35249	500.56229	644.86333	-363.96874	573.44924	457.42536	-343.80885	528.52461	146.49993	-335.31756	479.33130	113.46440	-264.50921	671.82273	75.07862	-378.75206	714.26917	117.02461	-328.81660	257.46419	335.69860	-100.26391	210.45012	448.42306	-43.20906	188.72831	337.21800	-51.77546	500.98688	457.56815	-393.31222	505.01524	341.01578	-375.04800	338.01118	884.79902	-19.10354	346.25277	772.50690	-30.31016	281.72224	748.07037	-21.63770	223.67885	882.05417	-35.76016	228.57572	767.23665	-38.11680	440.03220	937.01998	-369.24394	495.16171	814.85509	-366.35451	339.68068	898.51844	-382.94683	396.54339	773.24810	-384.73509	396.76503	1168.67570	-60.74181	200.79310	1200.17093	-132.16580	361.99303	1175.96719	-333.92036	188.77418	1200.69367	-224.47913	244.29722	1688.80660	-147.19397	324.89225	1627.66448	15.11074	294.93095	1678.70485	-331.32116	389.59665	1602.93481	-138.25055	389.34424	1610.11500	-194.84871	322.46039	1354.05551	74.08650	233.79363	1238.29216	41.05631	248.55173	1258.52625	112.37825	382.51086	1087.61966	120.42797	435.51218	1009.10456	111.54190	407.28925	998.34722	136.65824	274.70870	1390.60997	-415.17099	186.07400	1315.02433	-362.39151	200.04020	1316.13031	-439.69321	300.80456	1137.70200	-481.81023	338.94401	1067.73288	-479.31466	313.67173	1065.31672	-501.67240	315.83780	1073.43920	-95.11052	288.23628	1081.36771	-290.48730	322.95854	1088.57122	-91.42040	299.48628	1089.59156	-271.71170	
43	0.42000000	274.00667	598.68252	-68.22319	278.07835	445.58611	-84.45367	164.94585	96.58740	-121.15006	110.65932	77.06024	-187.31449	303.38104	36.77661	-97.23554	343.27086	64.73291	-145.76382	509.27379	642.24038	-362.44914	588.78735	458.07200	-342.59788	557.53856	145.30166	-334.97160	509.87263	109.98491	-264.26370	703.81024	79.93582	-378.04737	744.58811	123.64006	-327.94741	259.95170	335.16887	-100.90327	213.90734	448.07681	-43.43926	191.40978	337.06251	-52.10222	516.48607	455.22032	-392.22515	525.29297	338.65368	-374.11292	345.71383	883.46520	-19.25683	352.69080	771.27854	-30.64338	288.08321	747.32928	-21.75975	231.04271	881.86472	-35.08773	235.40300	766.48090	-38.02221	449.15159	934.48630	-368.31600	503.49057	811.99590	-364.78371	348.58675	896.55380	-382.40688	404.75355	770.93949	-383.58083	406.24112	1167.42554	-60.40808	210.40532	1198.89281	-132.39137	371.89661	1174.17789	-333.80799	198.60866	1199.26330	-224.70712	254.17046	1687.45927	-148.15824	334.35667	1626.56468	14.51603	305.53139	1676.97959	-332.08488	399.45398	1601.49877	-138.57880	399.04254	1608.53834	-195.09444	332.18151	1353.12670	74.05322	243.91106	1236.91054	41.13080	258.49479	1257.37312	112.49299	393.90817	1087.80925	120.68083	447.87841	1009.85677	111.89155	419.71944	998.79092	136.96788	285.92062	1388.71822	-415.61373	197.03811	1313.11105	-363.20071	211.33273	1314.22803	-440.43033	311.75298	1135.54303	-482.20237	349.71305	1065.37908	-479.57103	324.13238	1063.28026	-502.25154	325.28856	1072.17320	-94.82626	298.05738	1079.71828	-290.27018	332.37158	1087.21010	-91.14017	309.31389	1087.93379	-271.58747	
